# xmcd
#
# Track frame offsets:
#	150
#	13997
#	33711
#	50577
#	71188
#	81419
#	92599
#	103841
#	120698
#	131034
#
# Disc length: 1962 seconds
#
# Revision: 0
# Processed by: cddbd v1.5.2PL0 Copyright (c) Steve Scherf et al.
# Submitted via: EasyCDDAExtractor 9.1.0.1
#
DISCID=9407a80a
DTITLE=Larry Cochran - The Final Altar Call
DYEAR=2006
DGENRE=Gospel
TTITLE0=Beauty Of Love
TTITLE1=Chain Of Fire
TTITLE2=The Final Altar Call
TTITLE3=Bible On The Bar
TTITLE4=Happy Ever After
TTITLE5=Walking In The Light 
TTITLE6=When I See The King
TTITLE7=Thunder From The Throne
TTITLE8=Well Of Bethlehem
TTITLE9=They Sang Amazing Grace
EXTD=
EXTT0=
EXTT1=
EXTT2=
EXTT3=
EXTT4=
EXTT5=
EXTT6=
EXTT7=
EXTT8=
EXTT9=
PLAYORDER=
